<svg xmlns="http://www.w3.org/2000/svg" xmlns:xlink="http://www.w3.org/1999/xlink" width="59" height="59" viewBox="0 0 59 59">
  <defs>
    <linearGradient id="linear-gradient" y1="0.5" x2="1" y2="0.5" gradientUnits="objectBoundingBox">
      <stop offset="0" stop-color="#3155ff"/>
      <stop offset="1" stop-color="#39e6e8"/>
    </linearGradient>
  </defs>
  <g id="Data_Visualization_Report" data-name="Data Visualization &amp; Report" transform="translate(-502.62 -1580.522)">
    <g id="Ellipse_442" data-name="Ellipse 442" transform="translate(502.62 1580.522)" fill="#fff" stroke="#3155ff" stroke-width="1.5">
      <circle cx="29.5" cy="29.5" r="29.5" stroke="none"/>
      <circle cx="29.5" cy="29.5" r="28.75" fill="none"/>
    </g>
    <g id="Group_1524" data-name="Group 1524" transform="translate(-818.631 1875.08)">
      <g id="Group_1522" data-name="Group 1522" transform="translate(1334.185 -265.901)">
        <path id="Path_8951" data-name="Path 8951" d="M1352.929-232.707l-7.36-12.4a.861.861,0,0,0-.712-.423.845.845,0,0,0-.743.371l-6.464,9.31a.43.43,0,0,1-.1-.224l.873,1.843S1349.044-231.1,1352.929-232.707ZM1342-233.915a16.4,16.4,0,0,1-2.919-.959l5.689-8.194,6.111,10.3A47.97,47.97,0,0,1,1342-233.915Z" transform="translate(-1337.554 245.534)" fill="url(#linear-gradient)"/>
      </g>
      <g id="Group_1523" data-name="Group 1523" transform="translate(1332.454 -276.369)">
        <path id="Path_8952" data-name="Path 8952" d="M1347.51-253.138a47.97,47.97,0,0,1-8.88-1.145,16.4,16.4,0,0,1-2.919-.959c-1.395-.533-1.429-.977-1.429-.977a.43.43,0,0,1-.1-.224v-13.1c2.678,1.546,5.878,1.953,9.548,2.419l.1.013c.821.086,1.668.156,2.516.209a.858.858,0,0,0,.626-.214.862.862,0,0,0,.293-.6.867.867,0,0,0-.81-.918c-.574-.036-1.143-.079-1.7-.128l-.035-4.641a2.892,2.892,0,0,0-1.051-2.24,2.891,2.891,0,0,0-2.375-.68c-.918.142-1.789.3-2.589.485a.862.862,0,0,0-.542.382.862.862,0,0,0-.113.653.867.867,0,0,0,1.035.654c.763-.172,1.594-.328,2.48-.465a1.2,1.2,0,0,1,.984.287,1.2,1.2,0,0,1,.438.929l.034,4.455c-6.606-.8-8.843-2.342-8.843-2.938,0-.007.03-.747,2.63-1.638a.867.867,0,0,0,.538-1.1.868.868,0,0,0-1.1-.538c-2.448.839-3.726,1.9-3.795,3.148a.852.852,0,0,0-.005.092v15.467c0,1.64,1.886,2.9,5.766,3.842a55.491,55.491,0,0,0,12.531,1.267c1.172,0,2.343-.028,3.48-.083a.859.859,0,0,0,.6-.283.857.857,0,0,0,.223-.624.862.862,0,0,0-.906-.822c-.377.018-.766.034-1.163.046l2.427-3.906,2.208,3.595q-.519.055-1.057.1a.86.86,0,0,0-.588.306.86.86,0,0,0-.2.631.851.851,0,0,0,.938.787,37.753,37.753,0,0,0,8.5-1.573,10.731,10.731,0,0,0,2.182-.977,2.826,2.826,0,0,0,1.649-2.316c0-.08,0-2.278,0-4.822,0-9.478,0-10.558,0-10.714h0c-.141-2.486-4.927-3.734-8.911-4.342a2.889,2.889,0,0,0-2.377.681,2.889,2.889,0,0,0-1.048,2.232l-.034,4.665c-1.889.168-3.879.253-5.922.253-.623,0-1.253-.008-1.869-.024a.851.851,0,0,0-.618.233.861.861,0,0,0-.273.609.858.858,0,0,0,.237.619.858.858,0,0,0,.6.27,58.49,58.49,0,0,0,14.45-1.242,15.318,15.318,0,0,0,4.035-1.477v13.067c0,.007,0,.141-.213.365l-5.428-9.318a.855.855,0,0,0-.8-.5.841.841,0,0,0-.786.525l-1.566,2.9a.866.866,0,0,0,.35,1.172.855.855,0,0,0,.659.068.857.857,0,0,0,.515-.418l.872-1.616,4.711,8.088a24.354,24.354,0,0,1-6.121,1.525l-2.011-3.273,1.381-2.56a.859.859,0,0,0,.068-.659.859.859,0,0,0-.418-.514.858.858,0,0,0-.659-.068.859.859,0,0,0-.514.419l-.905,1.677-.3-.48a.861.861,0,0,0-.737-.412.861.861,0,0,0-.735.409l-3.756,6.044c-.412,0-.853,0-1.364-.009Zm10.9-15.793.033-4.479a1.2,1.2,0,0,1,.439-.922,1.225,1.225,0,0,1,.793-.3,1.108,1.108,0,0,1,.195.017c5.63.859,7.453,2.219,7.453,2.743,0,.279-.817,1.276-4.445,2.16A38.8,38.8,0,0,1,1358.406-268.931Z" transform="translate(-1332.454 276.369)" fill="#294eff"/>
      </g>
      <path id="Path_8953" data-name="Path 8953" d="M1379.343-237.917a3.606,3.606,0,0,0,3.6-3.6,3.606,3.606,0,0,0-3.6-3.6,3.605,3.605,0,0,0-3.6,3.6A3.605,3.605,0,0,0,1379.343-237.917Zm-1.87-3.6a1.872,1.872,0,0,1,1.87-1.87,1.872,1.872,0,0,1,1.87,1.87,1.872,1.872,0,0,1-1.87,1.87A1.873,1.873,0,0,1,1377.473-241.519Z" transform="translate(-28.592 -20.641)" fill="url(#linear-gradient)"/>
    </g>
  </g>
</svg>
