<svg xmlns="http://www.w3.org/2000/svg" xmlns:xlink="http://www.w3.org/1999/xlink" width="81" height="81" viewBox="0 0 81 81">
  <defs>
    <linearGradient id="linear-gradient" x1="-0.065" y1="0.261" x2="0.842" y2="1.136" gradientUnits="objectBoundingBox">
      <stop offset="0" stop-color="#3155ff"/>
      <stop offset="1" stop-color="#39e6e8"/>
    </linearGradient>
  </defs>
  <g id="OIL_GAS" data-name="OIL &amp; GAS" transform="translate(-659 -1006)">
    <g id="Ellipse_438" data-name="Ellipse 438" transform="translate(659 1006)" fill="#fff" stroke="#3155ff" stroke-width="1.5">
      <circle cx="40.5" cy="40.5" r="40.5" stroke="none"/>
      <circle cx="40.5" cy="40.5" r="39.75" fill="none"/>
    </g>
    <g id="Group_1517" data-name="Group 1517" transform="translate(675.354 1020.851)">
      <path id="Path_8944" data-name="Path 8944" d="M1245.435,13.473a.86.86,0,0,0,.968.173l.5-.23V42.09h-1.719v-4.3h-1.719v5.157a.859.859,0,0,0,.859.86h6.877a.859.859,0,0,0,.859-.86V37.792h-1.719v4.3h-1.719V12.622l8.538-3.941,8.864,5.433-6.874,23.677h-2.793a.86.86,0,0,0-.8.54l-1.719,4.3a.86.86,0,0,0,.8,1.179h36.96a.86.86,0,0,0,.859-.86V37.289l1.467-1.467a.861.861,0,0,0,.252-.608v-4.3a.86.86,0,0,0-.859-.86h-4.3V28.337h0a.86.86,0,0,0,.86-.86V24.039a.86.86,0,0,0-.344-.688l-2.936-2.2.579-.965a.86.86,0,0,0-.288-1.175L1260.6,2.894l-.808-6.466a.86.86,0,0,0-.853-.753h-4.3a.859.859,0,0,0-.7.364l-10.314,14.612a.86.86,0,0,0,.094,1.1Zm29.507,15.3,2.619,9.019h-15.107Zm-13.625,7.72,2.368-8.155h8.924Zm2.867-9.874,2-6.876h6.14l2,6.876Zm2.5-8.6,1.2-4.126a1.43,1.43,0,0,1,2.746,0l1.2,4.126ZM1255.908,42.09l1.031-2.579h24.622l1.031,2.579Zm31.393-6.017h-2.579V33.924l2.579-1.934Zm3.438,6.017h-6.017v-4.3h2.579v2.579h1.719V37.792h1.719Zm1.719-10.314v3.082l-1.216,1.216h-2.223v-4.3Zm-5.673-1.547-3.438,2.579a.86.86,0,0,0-.344.688v4.992l-.062-.154a.859.859,0,0,0-.8-.54h-2.793l-5.477-18.867,9.527,5.839,3.9,2.6v2.692A.859.859,0,0,0,1286.785,30.228Zm1.375-5.759v1.4l-3.139-2.093.689-1.148ZM1260.086,4.6l25.18,15.433-1.694,2.823-10.411-6.381-.887-3.055a3.147,3.147,0,0,0-5.6-.923l-8.278-5.074Zm-5-7.2h3.094l.729,5.829-2.29,3.816-10.389,4.8-.783-.783Z" transform="translate(-1243.464 4.325)" fill="url(#linear-gradient)"/>
      <circle id="Ellipse_437" data-name="Ellipse 437" cx="0.898" cy="0.898" r="0.898" transform="translate(24.901 18.869)" fill="#294eff"/>
      <path id="Path_8945" data-name="Path 8945" d="M1360.626,157.294l2.619,9.019h-15.107ZM1347,165.014l2.367-8.155h8.924Zm2.866-9.874,2-6.876H1358l2,6.876Zm2.5-8.6,1.2-4.126a1.43,1.43,0,0,1,2.746,0l1.2,4.126Zm-10.772,24.067,1.031-2.579h24.622l1.031,2.579Zm10.116-27.975-6.874,23.677h-2.792a.86.86,0,0,0-.8.54l-1.719,4.3a.86.86,0,0,0,.8,1.179h29.5c1.5,0,.58-1.719.58-1.719l-1.719-3.6-.062-.154a.859.859,0,0,0-.8-.54h-2.793l-5.478-18.867-.712-2.453-.887-3.055a3.147,3.147,0,0,0-5.6-.923Z" transform="translate(-1329.148 -124.196)" fill="#294eff"/>
    </g>
  </g>
</svg>
