<svg xmlns="http://www.w3.org/2000/svg" xmlns:xlink="http://www.w3.org/1999/xlink" width="81" height="81" viewBox="0 0 81 81">
  <defs>
    <linearGradient id="linear-gradient" x1="0.5" y1="-0.288" x2="0.5" y2="1.308" gradientUnits="objectBoundingBox">
      <stop offset="0" stop-color="#3155ff"/>
      <stop offset="1" stop-color="#39e6e8"/>
    </linearGradient>
    <linearGradient id="linear-gradient-3" x1="0.5" y1="-0.005" x2="0.5" y2="1.019" xlink:href="#linear-gradient"/>
    <linearGradient id="linear-gradient-4" x1="0.5" y1="-0.138" x2="0.5" y2="1.021" xlink:href="#linear-gradient"/>
    <linearGradient id="linear-gradient-5" x1="0.5" y1="-0.055" x2="0.5" y2="10.252" xlink:href="#linear-gradient"/>
  </defs>
  <g id="Telecom" transform="translate(-948 -1006)">
    <g id="Ellipse_440" data-name="Ellipse 440" transform="translate(948 1006)" fill="#fff" stroke="#3155ff" stroke-width="1.5">
      <circle cx="40.5" cy="40.5" r="40.5" stroke="none"/>
      <circle cx="40.5" cy="40.5" r="39.75" fill="none"/>
    </g>
    <g id="Group_1515" data-name="Group 1515" transform="translate(1493.193 1100.434)">
      <g id="Group_1504" data-name="Group 1504" transform="translate(-515.956 -71.944)">
        <g id="Group_1503" data-name="Group 1503" transform="translate(0 0)">
          <path id="Path_8936" data-name="Path 8936" d="M-476.2,27.292-480,14.321v0l-1.358-4.628h0l-1.876-6.4v0l-2.985-10.176a3.457,3.457,0,0,0,2.253-3.237,3.455,3.455,0,0,0-3.451-3.451,3.455,3.455,0,0,0-3.451,3.451,3.457,3.457,0,0,0,2.253,3.237l-6.221,21.205v0l-3.8,12.97a.945.945,0,0,0,.64,1.172.945.945,0,0,0,1.172-.64l.578-1.972,8.834-5.835,8.834,5.835.579,1.972a.945.945,0,0,0,.906.679.944.944,0,0,0,.266-.038A.945.945,0,0,0-476.2,27.292Zm-12.787-37.415a1.564,1.564,0,0,1,1.562-1.562,1.564,1.564,0,0,1,1.562,1.562,1.564,1.564,0,0,1-1.562,1.562A1.564,1.564,0,0,1-488.986-10.123Zm1.562,5.863,2.021,6.888h-4.041ZM-490,4.517h5.15l1.323,4.51h-7.8Zm-5.435,18.527,2.044-6.967,4.252,2.809Zm2.6-8.864.958-3.264h8.9l.958,3.264-5.409,3.573Zm7.123,4.705,4.252-2.809,2.044,6.967Z" transform="translate(498.687 13.574)" fill="#294eff"/>
        </g>
      </g>
      <g id="Group_1506" data-name="Group 1506" transform="translate(-512.928 -74.596)">
        <g id="Group_1505" data-name="Group 1505" transform="translate(0 0)">
          <path id="Path_8937" data-name="Path 8937" d="M-462.737-40.168a.945.945,0,0,0,0-1.336.945.945,0,0,0-1.336,0,8.249,8.249,0,0,0,0,11.652.942.942,0,0,0,.668.277.942.942,0,0,0,.668-.277.945.945,0,0,0,0-1.336A6.357,6.357,0,0,1-462.737-40.168Z" transform="translate(466.482 41.78)" fill="url(#linear-gradient)"/>
        </g>
      </g>
      <g id="Group_1508" data-name="Group 1508" transform="translate(-500.479 -74.596)">
        <g id="Group_1507" data-name="Group 1507" transform="translate(0 0)">
          <path id="Path_8938" data-name="Path 8938" d="M-332.446-41.5a.945.945,0,0,0-1.336,0,.945.945,0,0,0,0,1.336,6.358,6.358,0,0,1,0,8.981.944.944,0,0,0,0,1.336.941.941,0,0,0,.668.277.942.942,0,0,0,.668-.277A8.249,8.249,0,0,0-332.446-41.5Z" transform="translate(334.059 41.779)" fill="url(#linear-gradient)"/>
        </g>
      </g>
      <g id="Group_1510" data-name="Group 1510" transform="translate(-517.748 -78.001)">
        <g id="Group_1509" data-name="Group 1509" transform="translate(0)">
          <path id="Path_8939" data-name="Path 8939" d="M-512.588-76.389a.945.945,0,0,0,0-1.336.945.945,0,0,0-1.336,0,12.97,12.97,0,0,0-3.824,9.231,12.97,12.97,0,0,0,3.824,9.231.942.942,0,0,0,.668.277.942.942,0,0,0,.668-.277.944.944,0,0,0,0-1.336A11.178,11.178,0,0,1-512.588-76.389Z" transform="translate(517.748 78.001)" fill="url(#linear-gradient-3)"/>
        </g>
      </g>
      <g id="Group_1512" data-name="Group 1512" transform="translate(-497.074 -75.782)">
        <g id="Group_1511" data-name="Group 1511" transform="translate(0)">
          <path id="Path_8940" data-name="Path 8940" d="M-294.334-53.951a.945.945,0,0,0-1.3-.309.945.945,0,0,0-.309,1.3,11.122,11.122,0,0,1-1.619,13.745.945.945,0,0,0,0,1.336.942.942,0,0,0,.668.277.942.942,0,0,0,.668-.277,13.092,13.092,0,0,0,3.744-7.785A13.114,13.114,0,0,0-294.334-53.951Z" transform="translate(297.838 54.401)" fill="url(#linear-gradient-4)"/>
        </g>
      </g>
      <g id="Group_1514" data-name="Group 1514" transform="translate(-497.042 -78.001)">
        <g id="Group_1513" data-name="Group 1513" transform="translate(0)">
          <path id="Path_8941" data-name="Path 8941" d="M-296.583-78a.945.945,0,0,0,0,1.889A.945.945,0,0,0-296.583-78Z" transform="translate(297.495 78.001)" fill="url(#linear-gradient-5)"/>
        </g>
      </g>
    </g>
  </g>
</svg>
