<svg xmlns="http://www.w3.org/2000/svg" xmlns:xlink="http://www.w3.org/1999/xlink" width="81" height="81" viewBox="0 0 81 81">
  <defs>
    <linearGradient id="linear-gradient" x1="-0.118" y1="0.222" x2="0.909" y2="0.715" gradientUnits="objectBoundingBox">
      <stop offset="0" stop-color="#3155ff"/>
      <stop offset="1" stop-color="#39e6e8"/>
    </linearGradient>
  </defs>
  <g id="Power_Transmission" data-name="Power Transmission" transform="translate(-803.5 -1006)">
    <g id="Ellipse_439" data-name="Ellipse 439" transform="translate(803.5 1006)" fill="#fff" stroke="#3155ff" stroke-width="1.5">
      <circle cx="40.5" cy="40.5" r="40.5" stroke="none"/>
      <circle cx="40.5" cy="40.5" r="39.75" fill="none"/>
    </g>
    <g id="Group_1502" data-name="Group 1502" transform="translate(218.661 1094.177)">
      <g id="Group_1499" data-name="Group 1499" transform="translate(605.166 -71.744)">
        <g id="Group_1498" data-name="Group 1498" transform="translate(0)">
          <path id="Path_8934" data-name="Path 8934" d="M645-56.143,631.885-59.89v-6.548h8.321v1.508h-1.24a.706.706,0,0,0-.706.706v2.92a.706.706,0,0,0,.706.706h3.893a.706.706,0,0,0,.706-.706v-2.92a.706.706,0,0,0-.706-.706h-1.241v-1.508h3.188a.706.706,0,0,0,.7-.608.706.706,0,0,0-.505-.777L631.39-71.712h0l-.014,0-.016,0-.046-.011-.034-.005-.034,0-.047,0H619.483l-.048,0-.032,0-.035.005-.045.01-.017,0-.015,0h0l-13.611,3.889a.706.706,0,0,0-.505.777.706.706,0,0,0,.7.608h3.187v1.508h-1.241a.706.706,0,0,0-.706.706v2.92a.706.706,0,0,0,.706.706h3.893a.706.706,0,0,0,.706-.706v-2.92a.706.706,0,0,0-.706-.706h-1.241v-1.508h8.321v6.548l-13.115,3.747a.706.706,0,0,0-.505.777.706.706,0,0,0,.7.608h3.187v1.508h-1.241a.706.706,0,0,0-.706.706v2.92a.706.706,0,0,0,.706.706h3.893a.706.706,0,0,0,.706-.706v-2.92a.706.706,0,0,0-.706-.706h-1.241v-1.508h8.321v6.982L615.9-37.667h0l-.006.02h0v.007l-2.77,9.7h-1.414a.706.706,0,0,0-.706.706v2.214h-1.443a.706.706,0,0,0-.706.706.706.706,0,0,0,.706.706h31.553a.706.706,0,0,0,.706-.706.706.706,0,0,0-.706-.706h-1.443v-2.214a.706.706,0,0,0-.706-.706h-1.414l-2.77-9.695v0l-.006-.022v0l-2.888-10.108v-6.982h8.321v1.508h-1.24a.706.706,0,0,0-.706.706v2.92a.706.706,0,0,0,.706.706h3.893a.706.706,0,0,0,.706-.706v-2.92a.706.706,0,0,0-.706-.706h-1.241v-1.508h3.188a.706.706,0,0,0,.7-.608A.707.707,0,0,0,645-56.143Zm-2.847-7.375v1.508h-2.481v-1.508ZM631.885-70.1l7.879,2.251h-7.879V-70.1Zm-20.88,6.583v1.508h-2.481v-1.508Zm0,11.68v1.508h-2.481v-1.508Zm9.2-18.494h10.268v2.481H620.205Zm10.268,3.893v5.761l-8.642-5.761Zm-10.268.613,8.641,5.761h-8.641v-5.761Zm0,7.173h10.268v2.481H620.205Zm-1.386,20.488,6.52-4.564,6.52,4.564Zm12.289,1.412-5.769,2.884-5.769-2.884Zm-9.369-10.22h7.2l-3.6,2.52Zm8.734-7.787V-49l-8.642-5.761Zm-10.268.613,8.642,5.761h-8.642Zm-9.291-13.706,7.879-2.251v2.251Zm0,11.68,7.879-2.251v2.251Zm8.992,9.64,4.2,2.941-6.3,4.412Zm-2.882,10.085,6.736,3.368-8.981,4.491Zm19.995,9.915h1.241v1.508H612.418V-26.53h7.91a.706.706,0,0,0,.706-.706.706.706,0,0,0-.706-.706H616.65l8.689-4.344,8.689,4.344H623.476a.706.706,0,0,0-.706.706.706.706,0,0,0,.706.706h13.543Zm-1.12-2.056-8.981-4.491,6.736-3.368Zm-3.026-10.591-6.3-4.412,4.2-2.941Zm-.988-16.993v-2.251l7.879,2.251Zm10.268,4.332v1.508h-2.481v-1.508Z" transform="translate(-605.166 71.744)" fill="url(#linear-gradient)"/>
        </g>
      </g>
      <g id="Group_1501" data-name="Group 1501" transform="translate(608.856 -71.744)">
        <g id="Group_1500" data-name="Group 1500" transform="translate(0)">
          <path id="Path_8935" data-name="Path 8935" d="M666.958-71.712h0l-.014,0-.017,0-.046-.011-.034-.005-.034,0-.047,0H655.051l-.048,0-.032,0-.035.005-.062.014-.015,0h0l-.5,1.611v22.325l-2.888,10.109h0l-.006.02h0v.007l-2.77,9.7H647.28a.706.706,0,0,0-.706.706v2.214H645.13a.706.706,0,0,0-.706.706.706.706,0,0,0,.706.706h31.553a.706.706,0,0,0,.706-.706.706.706,0,0,0-.706-.706H675.24v-2.214a.706.706,0,0,0-.706-.706H673.12l-2.77-9.695v0l-.006-.022v0l-2.888-10.108V-70.1h0Zm-11.185,1.38h10.268v2.481H655.773Zm10.268,3.893v5.761L657.4-66.438Zm-10.268.613,8.642,5.761h-8.642v-5.761Zm0,7.173h10.268v2.481H655.773Zm-1.386,20.488,6.52-4.564,6.52,4.564Zm12.289,1.412-5.769,2.884-5.769-2.884Zm-9.368-10.22h7.2l-3.6,2.52Zm8.734-7.787V-49L657.4-54.758Zm-10.268.613,8.642,5.761h-8.642Zm-.3,7.614,4.2,2.941-6.3,4.412Zm-2.882,10.085,6.736,3.368-8.981,4.491Zm19.995,9.915h1.241v1.508H647.986V-26.53H655.9a.706.706,0,0,0,.706-.706.706.706,0,0,0-.706-.706h-3.678l8.689-4.344,8.689,4.344H659.044a.706.706,0,0,0-.706.706.706.706,0,0,0,.706.706h13.543Zm-1.12-2.056-8.981-4.491,6.736-3.368Zm-3.026-10.591-6.3-4.412,4.2-2.941Z" transform="translate(-644.424 71.744)" fill="#294eff"/>
        </g>
      </g>
    </g>
  </g>
</svg>
