<svg xmlns="http://www.w3.org/2000/svg" xmlns:xlink="http://www.w3.org/1999/xlink" width="59" height="59" viewBox="0 0 59 59">
  <defs>
    <linearGradient id="linear-gradient" x1="-0.01" y1="-0.009" x2="0.981" y2="0.981" gradientUnits="objectBoundingBox">
      <stop offset="0" stop-color="#3155ff"/>
      <stop offset="1" stop-color="#39e6e8"/>
    </linearGradient>
    <linearGradient id="linear-gradient-2" x1="0" y1="0.5" x2="1" y2="0.5" xlink:href="#linear-gradient"/>
  </defs>
  <g id="Project_and_Data_Management_" data-name="Project and Data Management " transform="translate(-164 -1580.522)">
    <g id="Ellipse_441" data-name="Ellipse 441" transform="translate(164 1580.522)" fill="#fff" stroke="#3155ff" stroke-width="1.5">
      <circle cx="29.5" cy="29.5" r="29.5" stroke="none"/>
      <circle cx="29.5" cy="29.5" r="28.75" fill="none"/>
    </g>
    <g id="Group_1521" data-name="Group 1521" transform="translate(-1007.802 1886.314)">
      <path id="Path_8948" data-name="Path 8948" d="M1234.27-271.27a4.8,4.8,0,0,0,4.8-4.8,4.8,4.8,0,0,0-4.8-4.8,4.8,4.8,0,0,0-4.8,4.8A4.8,4.8,0,0,0,1234.27-271.27Zm0-7.859a3.066,3.066,0,0,1,3.062,3.063A3.066,3.066,0,0,1,1234.27-273a3.066,3.066,0,0,1-3.062-3.062A3.066,3.066,0,0,1,1234.27-279.129Z" transform="translate(-32.743 -7.408)" fill="url(#linear-gradient)"/>
      <path id="Path_8949" data-name="Path 8949" d="M1208.284-289.385a10.416,10.416,0,0,0-6.756-2.481,10.414,10.414,0,0,0-6.756,2.481,12.347,12.347,0,0,0-1.226,1.226,10.418,10.418,0,0,0-2.481,6.757,10.491,10.491,0,0,0,2.479,6.758l-4.294,4.295a5.285,5.285,0,0,0-3.093-1,5.319,5.319,0,0,0-5.313,5.314,5.319,5.319,0,0,0,5.313,5.314,5.32,5.32,0,0,0,5.313-5.314,5.284,5.284,0,0,0-1-3.092l4.292-4.293a10.436,10.436,0,0,0,1.534,1.081,10.462,10.462,0,0,0,5.225,1.4,10.462,10.462,0,0,0,5.225-1.4,10.433,10.433,0,0,0,1.534-1.081l2.913,2.913a5.814,5.814,0,0,0-1.129,3.449,5.851,5.851,0,0,0,5.845,5.845,5.851,5.851,0,0,0,5.845-5.845,5.851,5.851,0,0,0-5.845-5.845h0a5.815,5.815,0,0,0-3.5,1.164l-2.908-2.909a10.492,10.492,0,0,0,2.479-6.758,10.417,10.417,0,0,0-2.481-6.756C1209.211-288.529,1208.284-289.385,1208.284-289.385Zm-6.756-.747a8.739,8.739,0,0,1,8.729,8.73,8.765,8.765,0,0,1-3.07,6.646v-1.232a2.179,2.179,0,0,0-2.177-2.177h-6.964a2.179,2.179,0,0,0-2.177,2.177v1.232a8.763,8.763,0,0,1-3.07-6.646,8.739,8.739,0,0,1,8.729-8.73Zm-15.37,27.68a3.584,3.584,0,0,1-3.58-3.58,3.584,3.584,0,0,1,3.58-3.58,3.584,3.584,0,0,1,3.58,3.58A3.584,3.584,0,0,1,1186.157-262.452Zm19.295-11.151a8.736,8.736,0,0,1-3.925.93,8.738,8.738,0,0,1-3.925-.93v-2.385a.444.444,0,0,1,.443-.443h6.963a.444.444,0,0,1,.443.443v2.385Zm10.463,10.659a4.116,4.116,0,0,1-4.111-4.111,4.116,4.116,0,0,1,4.111-4.111,4.116,4.116,0,0,1,4.111,4.111,4.116,4.116,0,0,1-4.111,4.111Z" transform="translate(0 0)" fill="#294eff"/>
      <path id="Path_8950" data-name="Path 8950" d="M1222.59-291.866a10.463,10.463,0,0,0-10.463,10.463,10.463,10.463,0,0,0,10.463,10.463,10.463,10.463,0,0,0,10.464-10.463A10.463,10.463,0,0,0,1222.59-291.866Zm0,19.193a8.729,8.729,0,0,1-8.73-8.73,8.73,8.73,0,0,1,8.73-8.73,8.73,8.73,0,0,1,8.73,8.73A8.73,8.73,0,0,1,1222.59-272.673Z" transform="translate(-21.063 0)" fill="url(#linear-gradient-2)"/>
    </g>
  </g>
</svg>
