<svg xmlns="http://www.w3.org/2000/svg" xmlns:xlink="http://www.w3.org/1999/xlink" width="415" height="2373" viewBox="0 0 415 2373"><defs><style>.a{fill:#f7f9fc;}.b{clip-path:url(#a);}.c{stroke:rgba(0,0,0,0);stroke-miterlimit:10;opacity:0.094;fill:url(#b);}</style><clipPath id="a"><rect class="a" width="415" height="2373" transform="translate(0 -44)"/></clipPath><linearGradient id="b" x1="0.327" y1="0.224" x2="0.703" y2="1.154" gradientUnits="objectBoundingBox"><stop offset="0" stop-color="#3155ff"/><stop offset="0.489" stop-color="#39e6e8" stop-opacity="0"/><stop offset="1" stop-color="#67fe7b" stop-opacity="0"/></linearGradient></defs><g class="b" transform="translate(0 44)"><path class="c" d="M421.239,74.914,559.77,314.248c57.923,100.07-14.882,225.387-131.049,225.572l-277.832.443c-116.167.185-188.57-124.9-130.326-225.155l139.3-239.777C218.105-24.925,363.315-25.156,421.239,74.914ZM321.763,416.183,213,337.415a17.329,17.329,0,0,0,15.073,26.041l121.081-.193c13.435-.021-206.809,45.456-213.506,33.883L303.939,232.87C297.238,221.3,328.5,404.591,321.763,416.183Z" transform="translate(671.701 2299.382) rotate(163)"/><path class="c" d="M421.239,74.914,559.77,314.248c57.923,100.07-14.882,225.387-131.049,225.572l-277.832.443c-116.167.185-188.57-124.9-130.326-225.155l139.3-239.777C218.105-24.925,363.315-25.156,421.239,74.914ZM321.763,416.183,213,337.415a17.329,17.329,0,0,0,15.073,26.041l121.081-.193c13.435-.021-206.809,45.456-213.506,33.883L303.939,232.87C297.238,221.3,328.5,404.591,321.763,416.183Z" transform="matrix(0.777, -0.629, 0.629, 0.777, -290.952, 145.263)"/></g></svg>